<svg id="Layer_1" data-name="Layer 1" xmlns="http://www.w3.org/2000/svg" xmlns:xlink="http://www.w3.org/1999/xlink" viewBox="0 0 48 48"><defs><style>.cls-1{fill:none;}.cls-2{clip-path:url(#clip-path);}.cls-3{clip-path:url(#clip-path-2);}.cls-4{fill:#00b45a;}.cls-5{clip-path:url(#clip-path-3);}.cls-6{clip-path:url(#clip-path-5);}</style><clipPath id="clip-path"><polygon class="cls-1" points="25.55 15.77 23.39 15.77 23.39 23.25 15.91 23.25 15.91 25.41 23.39 25.41 23.39 32.89 25.55 32.89 25.55 25.41 33.03 25.41 33.03 23.25 25.55 23.25 25.55 15.77"/></clipPath><clipPath id="clip-path-2"><rect class="cls-1" x="-160.32" y="-1060.47" width="900" height="1948.8"/></clipPath><clipPath id="clip-path-3"><path class="cls-1" d="M24.48,41.21A16.88,16.88,0,1,1,41.36,24.33,16.88,16.88,0,0,1,24.48,41.21Zm0-35.88a19,19,0,1,0,19,19A19,19,0,0,0,24.48,5.33Z"/></clipPath><clipPath id="clip-path-5"><path class="cls-1" d="M89.06,41.38a4.6,4.6,0,1,1,4.61-4.6A4.61,4.61,0,0,1,89.06,41.38ZM68,29a4.6,4.6,0,1,1,4.61-4.6A4.61,4.61,0,0,1,68,29Zm21-21.59a4.6,4.6,0,1,1-4.6,4.54A4.56,4.56,0,0,1,89.06,7.4Zm0,22.56a6.68,6.68,0,0,0-5.17,2.39l-9.66-5a6.79,6.79,0,0,0,.68-3,7.5,7.5,0,0,0-.68-3l9.66-5a6.77,6.77,0,0,0,5.17,2.39A6.88,6.88,0,0,0,89.06,5a7,7,0,0,0-6.87,7,7.4,7.4,0,0,0,.45,2.51L72.81,19.5a6.79,6.79,0,0,0-4.83-2,6.88,6.88,0,0,0,0,13.76,6.8,6.8,0,0,0,4.84-2l9.83,5.06a7.07,7.07,0,0,0-.46,2.5A6.88,6.88,0,1,0,89.06,30Z"/></clipPath></defs><title>new</title><g class="cls-2"><g class="cls-3"><rect class="cls-4" x="3.92" y="3.77" width="41.12" height="41.12"/></g></g><g class="cls-5"><g class="cls-3"><rect class="cls-4" x="-6.52" y="-6.67" width="62" height="62"/></g></g></svg>