<svg id="Layer_1" data-name="Layer 1" xmlns="http://www.w3.org/2000/svg" viewBox="0 0 20 20"><defs><style>.cls-1{fill:#00b45a;}</style></defs><title>qr_share</title><path class="cls-1" d="M14.21,12.34a2.68,2.68,0,0,0-2.07,1l-3.89-2a2.63,2.63,0,0,0,.28-1.21,3,3,0,0,0-.28-1.21l3.89-2a2.72,2.72,0,0,0,2.07,1,2.77,2.77,0,1,0,0-5.53A2.81,2.81,0,0,0,11.45,5.1a2.91,2.91,0,0,0,.18,1l-4,2a2.74,2.74,0,0,0-1.94-.8,2.77,2.77,0,0,0,0,5.53,2.72,2.72,0,0,0,1.94-.8l4,2a2.76,2.76,0,1,0,2.55-1.76Zm0-9.07A1.85,1.85,0,1,1,12.36,5.1,1.86,1.86,0,0,1,14.21,3.27ZM5.76,12A1.85,1.85,0,1,1,7.61,10.1,1.86,1.86,0,0,1,5.76,12Zm8.45,5a1.85,1.85,0,0,1,0-3.7,1.85,1.85,0,0,1,0,3.7Z"/></svg>