<svg id="Layer_1" data-name="Layer 1" xmlns="http://www.w3.org/2000/svg" xmlns:xlink="http://www.w3.org/1999/xlink" viewBox="0 0 24 24"><defs><style>.cls-1{fill:none;}.cls-2{clip-path:url(#clip-path);}.cls-3{clip-path:url(#clip-path-2);}.cls-4{clip-path:url(#clip-path-3);}.cls-5{fill:#fff;}</style><clipPath id="clip-path"><rect class="cls-1" x="64.09" y="-81.52" width="21.97" height="17.42"/></clipPath><clipPath id="clip-path-2"><path class="cls-1" d="M16.87,12A4.68,4.68,0,1,1,12.2,7.31,4.67,4.67,0,0,1,16.87,12Zm5.91-2-3.1-.48a7.72,7.72,0,0,0-1.55-2.71l1.18-2.91-3.38-2-2,2.42a7.62,7.62,0,0,0-3.49,0l-2-2.42-3.38,2,1.18,2.9a7.92,7.92,0,0,0-1.55,2.7L1.62,10V14l3.09.48a7.87,7.87,0,0,0,1.55,2.71L5.08,20l3.38,2,2-2.42a7.62,7.62,0,0,0,3.49,0l2,2.42,3.38-2-1.18-2.9a7.72,7.72,0,0,0,1.55-2.71l3.1-.49Z"/></clipPath><clipPath id="clip-path-3"><rect class="cls-1" x="-23.6" y="-583.17" width="302.62" height="622.06"/></clipPath></defs><title>settings_clicked</title><g class="cls-3"><g class="cls-4"><rect class="cls-5" x="-2.59" y="-2.31" width="29.57" height="28.58"/></g></g><path class="cls-1" d="M0,0H24V24H0Z"/></svg>