<svg id="Layer_1" data-name="Layer 1" xmlns="http://www.w3.org/2000/svg" xmlns:xlink="http://www.w3.org/1999/xlink" viewBox="0 0 48 48"><defs><style>.cls-1{fill:none;}.cls-2{clip-path:url(#clip-path);}.cls-3{clip-path:url(#clip-path-2);}.cls-4{clip-path:url(#clip-path-3);}.cls-5{fill:#00b45a;}.cls-6{clip-path:url(#clip-path-4);}.cls-7{clip-path:url(#clip-path-5);}</style><clipPath id="clip-path"><polygon class="cls-1" points="-29.47 15.77 -31.63 15.77 -31.63 23.25 -39.11 23.25 -39.11 25.41 -31.63 25.41 -31.63 32.89 -29.47 32.89 -29.47 25.41 -21.99 25.41 -21.99 23.25 -29.47 23.25 -29.47 15.77"/></clipPath><clipPath id="clip-path-2"><path class="cls-1" d="M-30.55,41.21A16.88,16.88,0,0,1-47.43,24.33,16.88,16.88,0,0,1-30.55,7.45,16.88,16.88,0,0,1-13.67,24.33,16.88,16.88,0,0,1-30.55,41.21Zm0-35.88a19,19,0,0,0-19,19,19,19,0,0,0,19,19,19,19,0,0,0,19-19A19,19,0,0,0-30.55,5.33Z"/></clipPath><clipPath id="clip-path-3"><rect class="cls-1" x="-215.35" y="-1060.47" width="900" height="1948.8"/></clipPath><clipPath id="clip-path-4"><path class="cls-1" d="M34,41.38a4.6,4.6,0,1,1,4.61-4.6A4.61,4.61,0,0,1,34,41.38ZM13,29a4.6,4.6,0,1,1,4.6-4.6A4.62,4.62,0,0,1,13,29ZM34,7.4a4.6,4.6,0,1,1-4.6,4.54A4.57,4.57,0,0,1,34,7.4ZM34,30a6.68,6.68,0,0,0-5.17,2.39l-9.66-5a6.66,6.66,0,0,0,.68-3,7.5,7.5,0,0,0-.68-3l9.66-5A6.77,6.77,0,0,0,34,18.71,6.88,6.88,0,0,0,34,5a7,7,0,0,0-6.87,7,7.4,7.4,0,0,0,.45,2.51L17.78,19.5a6.78,6.78,0,0,0-4.83-2A6.88,6.88,0,0,0,13,31.27a6.79,6.79,0,0,0,4.83-2l9.83,5.06a7.3,7.3,0,0,0-.45,2.5A6.88,6.88,0,1,0,34,30Z"/></clipPath><clipPath id="clip-path-5"><rect class="cls-1" x="-165.56" y="-1395.97" width="933.12" height="2020.52"/></clipPath></defs><title>share</title><g class="cls-3"><g class="cls-4"><rect class="cls-5" x="-61.55" y="-6.67" width="62" height="62"/></g></g><g class="cls-6"><g class="cls-7"><rect class="cls-5" x="-6.31" y="-7.49" width="59.72" height="63.64"/></g></g></svg>