<svg id="Layer_1" data-name="Layer 1" xmlns="http://www.w3.org/2000/svg" xmlns:xlink="http://www.w3.org/1999/xlink" viewBox="0 0 24 24"><defs><style>.cls-1,.cls-2{fill:none;}.cls-2{clip-rule:evenodd;}.cls-3{clip-path:url(#clip-path);}.cls-4{clip-path:url(#clip-path-2);}.cls-5{isolation:isolate;}.cls-6{clip-path:url(#clip-path-3);}.cls-7{clip-path:url(#clip-path-4);}.cls-8{clip-path:url(#clip-path-5);}.cls-9{fill:#fff;}.cls-10{clip-path:url(#clip-path-6);}</style><clipPath id="clip-path"><rect class="cls-1" x="1.01" y="3.29" width="21.97" height="17.42"/></clipPath><clipPath id="clip-path-2"><rect class="cls-1" x="-316.99" y="-78.71" width="375" height="812"/></clipPath><clipPath id="clip-path-3"><rect class="cls-1" x="0.01" y="3.29" width="23" height="18"/></clipPath><clipPath id="clip-path-4"><path class="cls-2" d="M21.15,3.29H8.32A1.83,1.83,0,0,0,6.49,5.12V6H5.6A1.84,1.84,0,0,0,3.76,7.87v.92H2.85A1.84,1.84,0,0,0,1,10.62v8.25a1.84,1.84,0,0,0,1.84,1.84H15.68a1.83,1.83,0,0,0,1.83-1.84V18h.92a1.83,1.83,0,0,0,1.83-1.84v-.91h.89A1.84,1.84,0,0,0,23,13.37V5.12A1.84,1.84,0,0,0,21.15,3.29ZM16.6,11.08v7.79a.92.92,0,0,1-.92.92H2.85a.92.92,0,0,1-.92-.92V10.62a.92.92,0,0,1,.92-.91H15.68a.92.92,0,0,1,.92.91Zm2.75,5a.92.92,0,0,1-.92.92h-.92V10.62a1.83,1.83,0,0,0-1.83-1.83h-11V7.87A.92.92,0,0,1,5.6,7H18.43a.92.92,0,0,1,.92.91Zm2.72-2.75a.92.92,0,0,1-.92.92h-.89V7.87A1.83,1.83,0,0,0,18.43,6H7.4V5.12a.92.92,0,0,1,.92-.91H21.15a.92.92,0,0,1,.92.91Z"/></clipPath><clipPath id="clip-path-5"><rect class="cls-1" x="1.01" y="3.29" width="22" height="18"/></clipPath><clipPath id="clip-path-6"><path class="cls-1" d="M-46.21,96.79a4.68,4.68,0,0,1-4.67,4.68,4.68,4.68,0,0,1-4.68-4.68,4.67,4.67,0,0,1,4.68-4.67A4.67,4.67,0,0,1-46.21,96.79Zm5.91-2-3.09-.47a7.9,7.9,0,0,0-1.56-2.71l1.18-2.91-3.38-2-2,2.43a7.62,7.62,0,0,0-3.49,0l-2-2.43-3.38,2,1.18,2.9a7.74,7.74,0,0,0-1.55,2.7l-3.09.49v3.94l3.09.48a7.92,7.92,0,0,0,1.55,2.7L-58,104.85l3.38,2,2-2.42a7.91,7.91,0,0,0,3.49,0l2,2.42,3.38-2-1.18-2.9a7.9,7.9,0,0,0,1.56-2.71l3.09-.49Z"/></clipPath></defs><title>stack_wallets</title><path class="cls-1" d="M0,0H24V24H0Z"/><g class="cls-3"><g class="cls-4"><g class="cls-5"><g class="cls-6"><g class="cls-7"><g class="cls-8"><rect class="cls-9" x="-3.99" y="-1.71" width="31.97" height="27.42"/></g></g></g></g></g></g></svg>