<svg id="Layer_1" data-name="Layer 1" xmlns="http://www.w3.org/2000/svg" xmlns:xlink="http://www.w3.org/1999/xlink" viewBox="0 0 48 48"><defs><style>.cls-1{fill:none;}.cls-2{fill:#fff;}.cls-3{clip-path:url(#clip-path);}.cls-4{clip-path:url(#clip-path-2);}.cls-5{clip-path:url(#clip-path-3);}</style><clipPath id="clip-path"><polygon class="cls-1" points="25.55 72.81 23.39 72.81 23.39 80.3 15.91 80.3 15.91 82.45 23.39 82.45 23.39 89.94 25.55 89.94 25.55 82.45 33.03 82.45 33.03 80.3 25.55 80.3 25.55 72.81"/></clipPath><clipPath id="clip-path-2"><path class="cls-1" d="M24.48,98.26A16.88,16.88,0,1,1,41.36,81.38,16.88,16.88,0,0,1,24.48,98.26Zm0-35.88a19,19,0,1,0,19,19A19,19,0,0,0,24.48,62.38Z"/></clipPath><clipPath id="clip-path-3"><path class="cls-1" d="M89.06,98.42a4.6,4.6,0,1,1,4.61-4.6A4.61,4.61,0,0,1,89.06,98.42ZM68,86a4.61,4.61,0,1,1,4.61-4.61A4.62,4.62,0,0,1,68,86Zm21-21.6A4.61,4.61,0,1,1,84.46,69,4.57,4.57,0,0,1,89.06,64.44Zm0,22.56a6.68,6.68,0,0,0-5.17,2.39l-9.66-5a6.75,6.75,0,0,0,.68-3,7.55,7.55,0,0,0-.68-3l9.66-5a6.77,6.77,0,0,0,5.17,2.39,6.88,6.88,0,1,0,0-13.75,7,7,0,0,0-6.87,7,7.34,7.34,0,0,0,.45,2.5l-9.83,5.05a6.79,6.79,0,0,0-4.83-2,6.88,6.88,0,0,0,0,13.75,6.8,6.8,0,0,0,4.84-2l9.83,5.06a7.07,7.07,0,0,0-.46,2.5A6.88,6.88,0,1,0,89.06,87Z"/></clipPath></defs><title>sweep</title><path class="cls-2" d="M14.53,17.9l-.61.28L4.5,5a1,1,0,0,0-.66-.41H3.65a1,1,0,0,0-.56.19,1,1,0,0,0-.23,1.41l9.42,13.2-.46.49a8.36,8.36,0,0,0-.67,10.53l.09.18,5.17,13.08L35.56,29.92l-10.8-9.21A8.4,8.4,0,0,0,14.53,17.9ZM12.79,29.2a6.32,6.32,0,0,1,1.46-8.83h0a6.33,6.33,0,0,1,8.82,1.47l.48.67L13.27,29.87Zm19.5.58-15,10.7-3.4-8.61,11.31-8.09Z"/><g id="btc_testnet" data-name="btc testnet"><g id="Bitcoin"><path class="cls-2" d="M38.44,22.89a7.86,7.86,0,0,1-7.63-9.75A7.85,7.85,0,1,1,46,16.94h0a7.84,7.84,0,0,1-7.6,5.95Zm0-14.38a6.55,6.55,0,0,0-6.33,5,6.52,6.52,0,0,0,12.65,3.15h0a6.54,6.54,0,0,0-6.32-8.1Z"/><path id="Shape" class="cls-2" d="M41.6,14c.14-.95-.59-1.47-1.58-1.81l.32-1.3-.79-.19L39.24,12l-.64-.15.32-1.27-.79-.2-.32,1.3-.5-.12h0l-1.09-.28L36,12.1s.58.13.57.14a.42.42,0,0,1,.37.46l-.37,1.47.08,0-.08,0-.52,2.07a.28.28,0,0,1-.36.18l-.57-.14-.39.9,1,.26.57.14L36,18.9l.79.2.32-1.3.63.17-.32,1.29.79.19.32-1.3c1.35.25,2.36.15,2.78-1.07a1.37,1.37,0,0,0-.72-1.91A1.28,1.28,0,0,0,41.6,14Zm-1.81,2.53c-.24,1-1.89.45-2.42.32l.43-1.74C38.33,15.25,40.05,15.52,39.79,16.54ZM40,14c-.22.89-1.6.44-2,.32l.39-1.57C38.84,12.86,40.27,13.07,40,14Z"/></g></g><path class="cls-2" d="M25.93,7.07a3.38,3.38,0,1,0-1.64,6.56,3.31,3.31,0,0,0,.83.1,3.37,3.37,0,0,0,3.27-2.56A3.39,3.39,0,0,0,25.93,7.07ZM27.73,11a2.65,2.65,0,0,1-1.23,1.66,2.69,2.69,0,0,1-3.71-.93,2.65,2.65,0,0,1-.3-2,2.69,2.69,0,0,1,2.62-2,2.36,2.36,0,0,1,.65.08,2.69,2.69,0,0,1,2,3.28Z"/><path class="cls-2" d="M25.85,9.12,26,8.56l-.44-.11L25.41,9l-.16,0,.14-.54L25,8.3l-.14.55-.09,0h0l-.58-.15L24,9.15h.05l.21.05h0a.13.13,0,0,1,.11.13l-.37,1.49c0,.06-.06.06-.09.05h0l-.2-.05h-.05l-.21.48.5.13.14,0h0L24,12l.44.11.13-.55.16,0-.13.55.44.11.14-.56c.47.09,1,.08,1.18-.49a.63.63,0,0,0-.22-.82.6.6,0,0,0,.35-.49C26.58,9.45,26.18,9.24,25.85,9.12ZM25.63,11a.21.21,0,0,1-.1.15,1.26,1.26,0,0,1-.79,0h0l.15-.63h0c.21,0,.58.13.7.32A.25.25,0,0,1,25.63,11ZM25,10h0l.14-.56h0c.16,0,.47.11.57.27a.22.22,0,0,1,0,.18.24.24,0,0,1-.1.14A1,1,0,0,1,25,10Z"/></svg>